<?xml version="1.0" encoding="UTF-8"?>
<!DOCTYPE svg PUBLIC "-//W3C//DTD SVG 1.1//EN" "http://www.w3.org/Graphics/SVG/1.1/DTD/svg11.dtd">
<svg xmlns="http://www.w3.org/2000/svg" version="1.1" width="1075px" height="1059px" style="shape-rendering:geometricPrecision; text-rendering:geometricPrecision; image-rendering:optimizeQuality; fill-rule:evenodd; clip-rule:evenodd" xmlns:xlink="http://www.w3.org/1999/xlink">
<g><path style="opacity:1" fill="#020403" d="M -0.5,-0.5 C 357.833,-0.5 716.167,-0.5 1074.5,-0.5C 1074.5,352.5 1074.5,705.5 1074.5,1058.5C 716.167,1058.5 357.833,1058.5 -0.5,1058.5C -0.5,705.5 -0.5,352.5 -0.5,-0.5 Z"/></g>
<g><path style="opacity:1" fill="#fefffe" d="M 569.5,119.5 C 571.017,119.511 572.184,120.177 573,121.5C 660.688,272.878 747.855,424.544 834.5,576.5C 765.592,697.322 695.925,817.655 625.5,937.5C 589,874.5 552.5,811.5 516,748.5C 505.041,766.918 494.207,785.418 483.5,804C 453.833,804.667 424.167,804.667 394.5,804C 434.633,734.225 475.133,664.725 516,595.5C 552.907,658.308 589.574,721.308 626,784.5C 666.04,714.918 706.207,645.418 746.5,576C 687.621,475.079 629.121,373.912 571,272.5C 468.833,449.5 366.667,626.5 264.5,803.5C 234.833,804.833 205.167,804.833 175.5,803.5C 307.288,575.724 438.622,347.724 569.5,119.5 Z"/></g>
<g><path style="opacity:1" fill="#fefffe" d="M 570.5,499.5 C 603.97,556.498 637.303,613.664 670.5,671C 655.667,696.5 640.833,722 626,747.5C 592.833,690.5 559.667,633.5 526.5,576.5C 540.926,550.643 555.592,524.976 570.5,499.5 Z"/></g>
<g><path style="opacity:1" fill="#fefffe" d="M 844.5,595.5 C 845.496,595.414 846.329,595.748 847,596.5C 860.081,619.664 873.414,642.664 887,665.5C 888.885,667.914 889.552,670.581 889,673.5C 838.071,761.699 786.904,849.699 735.5,937.5C 720.434,912.425 705.767,887.092 691.5,861.5C 742.524,772.778 793.524,684.112 844.5,595.5 Z"/></g>
</svg>
