<?xml version="1.0" encoding="UTF-8"?>
<!DOCTYPE svg PUBLIC "-//W3C//DTD SVG 1.1//EN" "http://www.w3.org/Graphics/SVG/1.1/DTD/svg11.dtd">
<svg xmlns="http://www.w3.org/2000/svg" version="1.1" width="1090px" height="1092px" style="shape-rendering:geometricPrecision; text-rendering:geometricPrecision; image-rendering:optimizeQuality; fill-rule:evenodd; clip-rule:evenodd" xmlns:xlink="http://www.w3.org/1999/xlink">
<g><path style="opacity:1" fill="#000000" d="M 532.5,14.5 C 632.619,13.0286 725.952,37.1952 812.5,87C 813.097,88.0617 813.43,89.2284 813.5,90.5C 808.739,127.596 803.572,164.596 798,201.5C 682.624,120.365 556.791,98.865 420.5,137C 288.186,180.98 196.353,267.813 145,397.5C 106.433,507.089 110.433,615.089 157,721.5C 162.078,731.99 167.411,742.323 173,752.5C 193.107,609.419 212.94,466.253 232.5,323C 292.5,322.333 352.5,322.333 412.5,323C 452.528,323.761 485.694,338.928 512,368.5C 533.959,400 542.959,435 539,473.5C 532.708,535.315 502.208,580.482 447.5,609C 427.124,618.094 405.791,623.427 383.5,625C 355.169,625.5 326.835,625.667 298.5,625.5C 282.992,745.565 266.992,865.565 250.5,985.5C 127.311,900.669 51.4779,784.335 23,636.5C -3.44058,459.524 43.8928,305.857 165,175.5C 266.289,74.2907 388.789,20.624 532.5,14.5 Z M 326.5,424.5 C 349.836,424.333 373.169,424.5 396.5,425C 414.763,427.929 425.93,438.429 430,456.5C 432.314,479.561 425.48,499.394 409.5,516C 402.269,522.214 393.936,526.214 384.5,528C 360.502,528.5 336.502,528.667 312.5,528.5C 317.26,493.845 321.927,459.178 326.5,424.5 Z"/></g>
<g><path style="opacity:1" fill="#000000" d="M 841.5,105.5 C 964.607,190.246 1040.11,306.579 1068,454.5C 1094.07,628.908 1048.07,780.908 930,910.5C 805.274,1035.97 654.44,1089.47 477.5,1071C 406.76,1061.64 340.593,1039.14 279,1003.5C 283.339,965.457 288.339,927.457 294,889.5C 408.14,969.321 532.64,990.821 667.5,954C 793.217,913.282 883.383,832.782 938,712.5C 982.824,603.594 983.824,494.261 941,384.5C 934.467,369.101 927.134,354.101 919,339.5C 899.689,475.982 881.022,612.649 863,749.5C 826.233,750.829 789.4,750.829 752.5,749.5C 728.333,693.833 704.167,638.167 680,582.5C 671.787,553.971 663.121,525.637 654,497.5C 653.585,525.506 653.585,553.506 654,581.5C 646.333,637.5 638.667,693.5 631,749.5C 594.571,750.663 558.071,750.829 521.5,750C 541.821,607.583 561.821,465.083 581.5,322.5C 616.173,322.167 650.84,322.5 685.5,323.5C 711,383.167 736.5,442.833 762,502.5C 770.333,531.833 778.667,561.167 787,590.5C 788.122,587.691 788.622,584.691 788.5,581.5C 787.417,557.508 787.25,533.508 788,509.5C 805.671,374.798 823.504,240.131 841.5,105.5 Z"/></g>
</svg>
